<svg width="393" height="852" viewBox="0 0 393 852" fill="none" xmlns="http://www.w3.org/2000/svg">
<g clip-path="url(#clip0_1_646)">
<rect width="393" height="852" fill="#FAF0E6"/>
<path d="M541.095 -70.1765C553.789 -73.0105 566.837 -71.6821 578.337 -62.9146C593.199 -51.5789 601.204 -31.2986 595.587 -13.0994C593.11 -5.04044 589.395 2.79715 583.777 9.08493C576.302 17.5424 565.952 22.8118 555.912 27.904C565.598 29.8966 574.71 33.0848 583.733 37.07C592.049 40.7895 594.614 48.5828 596.427 57.3503C599.789 73.2911 597.975 90.8261 588.908 104.332C582.716 113.586 572.808 120.582 561.839 122.929C551.754 125.099 538.485 125.542 528.356 123.593C529.197 129.704 530.612 136.302 531.01 142.368C531.364 147.638 530.789 152.951 529.462 158.043C526.941 167.652 521.633 176.641 514.291 183.372C496.952 199.18 469.396 204.183 448.829 192.848C430.606 182.84 414.683 168.671 402.564 151.8C398.229 165.925 383.102 187.49 368.285 191.696C342.144 199.135 300.744 189.482 291.987 159.992C289.023 150.073 292.075 139.49 295.127 129.616C272.658 129.306 245.058 139.756 225.729 123.726C220.421 119.342 216.573 113.365 213.831 107.033C201.49 78.4276 212.327 37.6456 241.652 23.9188C244.262 22.7232 253.241 20.5535 254.125 17.8081C254.169 17.631 245.19 17.0996 244.704 17.0996C240.458 17.0111 236.256 16.3469 232.187 15.107C226.702 13.4686 222.146 12.4945 217.325 8.99637C213.167 5.98532 209.673 2.17722 206.842 -2.07367C201.048 -10.7526 198.04 -21.1141 197.112 -31.4757C195.696 -47.2837 207.771 -72.6562 232.142 -78.0584C236.123 -78.944 240.06 -80.1839 244.129 -80.5824C248.154 -81.0252 252.312 -80.6709 256.912 -80.6709C264.829 -118.619 286.369 -144.567 326.575 -148.597C340.95 -150.058 355.502 -147.578 368.241 -140.671C381.908 -133.276 390.577 -122.029 399.866 -110.029C399.954 -109.896 415.789 -122.914 417.381 -123.977C423.927 -128.405 431.225 -131.903 439.01 -133.453C444.627 -134.604 450.421 -135.047 456.083 -135.977C475.987 -139.254 498.323 -127.741 509.735 -111.224C515.087 -103.475 518.404 -94.3092 519.377 -84.9661C520.306 -75.9772 516.989 -68.8481 516.679 -60.1692C516.679 -60.3906 526.322 -65.0843 527.206 -65.4828C531.673 -67.4755 536.318 -69.1138 541.095 -70.1765Z" fill="#B496C8"/>
<path d="M111.27 92.5749C110.88 92.3845 110.545 92.1466 110.154 92.0038C109.038 91.4328 107.474 91.3853 106.637 92.1942C106.135 92.6701 106.079 93.3838 105.8 94.0024C101.557 103.805 99.7712 111.609 95.6963 122.554C92.1237 132.213 88.3278 142.254 84.0296 151.343C81.2385 157.148 79.5081 163.81 77.1636 169.806C74.7075 176.135 72.0839 182.463 69.2928 188.745C67.8414 191.981 66.8367 191.409 64.7155 189.078C63.0967 187.27 61.5895 185.366 60.1381 183.463C56.9563 179.133 54.1653 174.659 51.4858 170.091C46.3503 161.24 41.9962 152.104 37.1956 143.11C33.6231 136.449 30.0505 129.739 26.478 123.077C23.7428 117.985 21.3983 109.944 16.8767 105.899C9.89909 99.7127 1.80507 107.469 -3.21883 111.895C-9.63826 117.557 -15.5554 123.505 -22.0306 129.12C-27.8918 134.212 -34.1996 138.971 -40.3958 143.824C-40.8981 144.205 -42.4611 144.395 -42.5728 144.205C-43.0752 143.444 -43.6334 142.444 -43.4101 141.683C-41.568 135.782 -39.6143 129.977 -37.6606 124.124C-35.2603 117.034 -32.8599 109.944 -30.3479 102.901C-27.2778 94.3356 -23.9285 85.8178 -20.97 77.1573C-19.0163 71.4471 -17.4532 65.6416 -15.8903 59.8362C-15.2204 57.3618 -17.0067 56.2673 -19.9094 57.1238C-27.2778 59.3128 -34.702 61.4066 -41.9029 63.9286C-54.4627 68.354 -66.855 73.2077 -79.4148 77.6807C-90.0766 81.4875 -100.738 85.3419 -111.624 88.7205C-118.88 90.957 -126.528 92.4322 -133.952 94.1928C-134.287 94.288 -134.734 94.05 -136.408 93.7645C-123.848 79.2034 -109.391 68.2588 -94.7097 55.1728C-84.0479 45.6558 -73.3302 36.0912 -63.5057 25.9079C-60.0448 22.339 -42.4611 7.06413 -42.2379 2.54353C-42.2379 1.82976 -42.9077 1.25876 -43.5217 0.782898C-63.0591 -13.4927 -82.7641 -26.7214 -103.585 -39.7121C-115.866 -47.3734 -128.091 -55.0346 -140.371 -62.6958C-160.467 -75.2583 -141.097 -72.9743 -126.472 -71.7371C-108.721 -70.2144 -90.9697 -68.5013 -73.2744 -66.5979C-64.6221 -65.6937 -33.3065 -57.747 -27.8919 -64.742C-22.9796 -71.0709 -37.6605 -98.5276 -40.3958 -105.38C-46.4244 -120.56 -53.2905 -135.501 -59.4308 -150.633C-62.2218 -157.581 -66.3526 -164.29 -69.4786 -171.143C-74.67 -182.563 -84.2154 -197.79 -84.0479 -210.353C-80.6429 -207.688 -77.7959 -205.642 -75.1165 -203.406C-64.9013 -194.935 -54.8534 -186.37 -44.5823 -177.947C-29.1757 -165.29 -14.4389 -150.538 1.2468 -137.595C9.84325 -130.505 18.8864 -123.748 28.7109 -117.942C37.3073 -112.898 44.4524 -106.855 52.6023 -101.954C56.2307 -99.7648 57.9053 -100.336 59.5241 -103.857C64.3805 -114.516 69.237 -125.223 73.9818 -135.93C78.7824 -146.731 83.6388 -157.486 88.0487 -168.383C91.7887 -177.662 94.6914 -187.179 98.3198 -196.458C101.111 -203.643 104.683 -210.591 107.698 -217.729C109.763 -222.725 111.438 -227.817 113.392 -232.861C114.061 -234.621 115.066 -236.287 115.904 -238C116.294 -238 116.685 -237.952 117.076 -237.905C118.08 -234.717 119.253 -231.528 119.978 -228.245C122.602 -215.968 123.104 -203.834 125.226 -191.604C128.742 -171.19 132.427 -151.252 136.557 -130.981C137.618 -125.746 138.12 -120.464 139.293 -115.278C140.521 -109.948 142.084 -104.618 143.926 -99.4317C144.931 -96.5766 147.554 -97.4807 149.117 -99.0034C153.025 -102.715 156.541 -106.712 160.337 -110.519C166.98 -117.086 173.734 -123.557 180.433 -130.124C184.005 -133.598 187.522 -137.167 191.15 -140.593C194.946 -144.209 198.965 -147.636 202.594 -151.347C208.846 -157.724 214.763 -164.386 221.071 -170.714C225.09 -174.759 229.611 -178.471 233.854 -182.325C234.244 -182.182 234.579 -181.992 234.97 -181.849C234.189 -179.327 233.407 -176.853 232.57 -174.331C232.291 -173.522 231.844 -172.761 231.565 -171.952C228.104 -162.292 224.587 -152.632 221.294 -142.877C217.889 -132.884 215.042 -122.701 211.525 -112.756C208.12 -103.191 204.213 -93.8166 200.417 -84.3472C197.291 -76.4956 193.997 -68.6916 190.76 -60.8876C189.643 -58.1753 190.313 -56.7953 194.053 -56.9381C202.315 -57.2236 210.576 -57.4139 218.782 -57.6042C221.517 -57.6994 224.308 -57.8421 227.043 -57.7946C235.807 -57.6518 244.571 -57.3187 253.335 -57.2236C258.582 -57.176 263.774 -57.4139 269.021 -57.4139C279.794 -57.3663 290.568 -57.176 301.341 -57.0808C305.249 -57.0808 309.156 -57.0808 313.064 -57.2236C316.581 -57.3187 320.097 -57.6994 323 -54.7967C320.767 -53.9402 318.702 -53.0836 316.636 -52.3223C306.589 -48.563 296.541 -44.8038 286.437 -41.0921C271.031 -35.4295 255.568 -29.9096 240.217 -24.1994C229.109 -20.107 218.168 -15.8719 207.059 -11.7796C203.264 -10.3521 203.319 -8.87689 205.664 -6.11694C209.739 -1.40601 212.921 3.82835 216.884 8.58688C222.522 15.3916 228.383 22.0536 234.412 28.6203C239.715 34.4257 245.576 39.8504 250.879 45.6558C258.136 53.5549 265.002 61.7397 272.314 69.6388C278.511 76.3483 285.098 82.8199 291.405 89.3867C293.136 91.1949 294.643 93.1935 296.038 95.4776C275.664 90.4811 256.684 82.4868 237.37 75.2538C217.889 67.9257 198.463 60.55 178.591 53.0315C178.423 53.3646 177.642 54.1736 177.642 54.935C178.256 69.4485 179.037 83.9144 179.651 98.4279C179.93 104.757 179.651 111.086 180.098 117.367C180.712 125.266 181.94 133.165 182.721 141.064C183.224 145.918 183.559 150.819 183.782 155.721C183.782 156.815 183.168 157.909 182.777 159.194C182.61 159.67 171.613 148.63 170.776 147.726C164.58 141.064 157.825 134.688 151.127 128.359C144.372 121.983 137.395 115.701 130.305 109.563C124.556 104.566 117.913 96.7624 110.935 92.7652L111.27 92.5749Z" fill="#D7D7AA"/>
<path d="M546.314 733.272C530.517 705.487 513.555 678.421 497.86 650.567C473.736 607.776 449.269 565.019 419.765 525.619C412.227 515.547 403.283 501.123 390.467 511.71C382.14 518.596 379.159 532.369 374.224 541.55C355.72 576.085 337.216 610.585 318.677 645.086C309.254 662.627 299.831 680.203 290.373 697.744C286.055 705.761 261.931 732.895 267.962 740.672C270.703 744.201 275.706 745.263 280.127 744.715C287.357 743.79 293.217 745.503 300.447 744.818C310.419 743.893 320.459 743.961 330.465 744.441C388.582 747.25 447.316 745.709 505.742 744.133C512.115 743.961 544.395 747.524 547.685 739.781C548.576 737.657 547.411 735.259 546.28 733.238L546.314 733.272Z" fill="#E6B41E"/>
<path d="M-13.3004 216.31C-55.0685 184.355 -101.49 175.001 -149.534 173C-172.041 177.217 -194.873 179.651 -217.056 186.031C-262.341 199.008 -302.269 225.34 -326.562 281.086C-341.44 315.204 -345.282 356.081 -335.922 392.524C-323.207 442.106 -287.228 477.144 -246.163 505.152C-225.388 519.318 -204.449 535.377 -179.724 540.892C-148.344 547.867 -115.773 546.191 -83.9601 544.569C-2.91245 540.406 68.3965 480.604 68.9916 397.066C69.5868 315.745 38.423 255.997 -13.3004 216.364V216.31Z" fill="#D28CB4"/>
<path d="M141.701 997.271C141.701 1002.58 141.701 1007.9 141.701 1013.21C141.701 1018.03 141.316 1018.66 136.53 1018.98C134.05 1019.12 131.499 1018.63 128.984 1018.24C127.097 1017.96 126.364 1016.7 126.503 1014.75C126.888 1009.12 127.202 1003.53 127.516 997.9C127.726 994.126 128.041 990.386 128.041 986.611C128.041 982.277 122.8 978.712 118.713 980.11C117.909 980.39 117.036 981.264 116.756 982.068C114.835 987.345 112.983 992.658 111.271 998.005C109.664 1002.97 108.301 1008 106.764 1013C106.066 1015.27 104.528 1016.32 102.153 1015.73C99.6722 1015.1 97.1218 1014.57 94.7461 1013.66C92.7198 1012.89 92.8596 1011.01 93.3837 1009.29C94.6064 1005.27 95.8991 1001.33 97.1917 997.341C98.694 992.763 100.301 988.219 101.629 983.605C102.397 980.949 102.362 978.153 100.685 975.707C98.4844 972.421 94.7811 972.037 92.2307 975.112C86.7806 981.683 81.5053 988.464 76.16 995.139C75.7408 995.629 75.3565 996.153 75.0071 996.677C70.9894 1002.62 67.95 1001.95 61.8011 999.089C60.0543 998.285 59.111 996.747 59.3206 994.545C59.67 991.015 61.7313 988.464 63.7576 985.877C68.1596 980.25 72.6314 974.693 77.0683 969.066C79.0248 966.619 79.1645 965.361 76.7888 963.264C74.6577 961.377 72.1772 959.734 69.6269 958.511C67.8451 957.637 66.0634 958.546 64.4214 959.909C60.6482 963.089 56.6306 965.885 52.8924 969.101C49.783 971.757 46.9182 974.728 44.0185 977.629C40.6297 981.019 37.7299 981.439 34.7953 978.852C31.092 975.602 30.5331 971.198 33.6424 967.808C36.4373 964.802 39.5467 962.111 42.5163 959.28C45.6955 956.309 48.9445 953.443 52.0189 950.402C54.2549 948.2 54.2199 946.558 52.3334 944.041C50.9708 942.224 49.5734 940.476 48.141 938.729C45.7304 935.793 43.1451 935.408 40.0357 937.575C36.3674 940.162 32.8039 942.923 29.0308 945.334C25.2227 947.816 21.2749 950.123 17.2573 952.29C14.672 953.688 13.1697 951.136 11.353 950.088C10.3049 949.459 9.60618 948.235 8.73277 947.292C7.40518 945.824 7.23051 944.006 8.52316 942.748C11.4928 939.882 14.5322 937.016 17.8861 934.64C21.799 931.843 26.0612 929.607 30.1488 927.09C31.8607 926.042 33.6074 925.063 35.1796 923.84C37.9396 921.673 38.3239 920.45 36.8566 917.409C35.4242 914.473 33.5376 911.747 31.7908 908.951C30.6379 907.133 28.8911 906.469 26.7949 906.924C21.6243 908.042 16.4537 909.3 11.2482 910.279C7.09076 911.048 2.86344 911.642 -1.32893 911.957C-2.97094 912.096 -4.75271 911.432 -5.27676 909.23C-5.94055 906.539 -6.91875 903.918 -7.5476 901.227C-7.9319 899.619 -6.98862 898.605 -5.41648 898.256C2.82851 896.543 11.1084 894.866 19.3534 893.188C20.0521 893.048 20.7858 893.013 21.5195 893.013C27.0744 892.873 28.926 891.091 29.1007 885.499C29.1007 885.429 29.1007 885.324 29.1007 885.254C29.1706 878.089 28.6814 875.293 19.3534 875.433C13.0998 875.538 6.81128 875.643 0.557664 875.328C-2.0975 875.188 -4.8575 874.315 -7.26811 873.161C-10.4823 871.589 -10.9714 863.864 -8.14152 861.558C-7.51266 861.068 -6.53443 860.789 -5.7309 860.789C-0.839802 860.789 4.0862 860.998 8.97729 861.033C14.4274 861.103 19.8775 861.103 25.3276 861.033C27.9827 861.033 29.8693 859.74 30.8125 857.119C32.21 853.204 33.0485 849.115 32.3497 845.061C31.8257 842.055 28.9958 841.391 26.3407 840.762C18.6547 838.91 10.9687 837.022 3.3875 834.855C1.39613 834.296 -0.45551 832.863 -2.02765 831.395C-2.86612 830.591 -3.495 828.844 -3.25044 827.76C-2.7264 825.454 -1.81805 823.147 -0.630214 821.05C0.382941 819.232 2.47914 819.582 4.19103 819.966C9.50136 821.19 14.7767 822.448 20.0172 823.846C23.8253 824.859 27.5635 826.188 31.3366 827.341C34.4809 828.32 37.0312 827.376 38.778 824.615C39.1973 823.951 39.5816 823.217 39.896 822.483C42.2018 817.38 41.573 815.143 36.7867 812.347C31.6161 809.341 26.3407 806.475 21.0304 803.714C18.0957 802.176 15.6851 800.219 13.8335 797.493C12.5757 795.606 12.2963 793.823 13.7286 791.936C14.7767 790.538 15.755 789.035 16.7681 787.602C17.7813 786.169 19.1787 785.924 20.5762 786.833C26.3756 790.538 32.1052 794.347 37.9396 797.982C40.7345 799.73 43.6691 801.198 46.6038 802.631C47.3025 802.945 48.4205 802.736 49.1891 802.421C53.626 800.604 55.268 793.264 52.2984 789.489C48.7 784.946 44.9618 780.647 40.4899 776.872C37.9046 774.67 36.3325 771.035 34.9351 767.75C33.6075 764.639 36.3325 759.816 39.5816 758.698C41.8175 757.929 43.3547 759.432 44.9618 760.62C49.5035 763.975 52.6478 768.519 55.9318 773.028C57.8533 775.684 60.2989 777.991 62.7095 780.227C64.3166 781.73 66.6573 781.87 68.3692 780.717C71.3737 778.69 74.2035 776.348 76.8936 773.866C79.2693 771.664 78.7103 768.973 77.1032 766.597C73.1554 760.725 69.7666 754.609 67.356 747.933C66.6224 745.871 67.0416 743.424 68.6836 742.026C73.9939 737.448 75.2866 737.343 79.3043 743.075C82.5184 747.653 84.8941 752.826 87.7938 757.649C89.4009 760.306 91.0079 763.032 93.1041 765.269C95.0606 767.331 99.7071 767.435 101.873 765.688C104.389 763.626 104.982 763.102 104.563 758.348C103.795 749.82 100.65 741.886 99.3578 733.533C99.1132 731.961 99.7071 729.549 100.825 728.64C102.747 727.067 105.297 726.054 107.742 725.46C108.895 725.18 110.747 726.124 111.725 727.067C114.73 730.003 115.498 734.058 116.372 737.972C117.839 744.508 118.992 751.148 120.494 757.684C121.507 762.123 123.149 762.752 127.342 762.892C128.704 762.927 130.067 762.717 131.429 762.612C135.272 762.368 137.648 760.34 137.928 756.496C138.382 750.589 138.556 744.648 138.836 738.741C138.976 735.84 138.906 732.939 139.29 730.073C139.884 725.495 143.552 723.293 148.653 724.201C152.321 724.866 153.719 726.543 153.684 730.318C153.684 735.281 153.824 740.279 153.684 745.242C153.614 747.723 153.09 750.205 152.741 752.651C152.601 753.595 152.356 754.574 152.321 755.517C152.007 763.311 153.369 765.408 161.859 766.282C165.597 766.667 167.099 765.548 168.462 761.669C170.104 756.95 171.152 751.987 172.584 747.164C174.087 742.096 175.729 737.098 177.371 732.065C177.93 730.283 179.222 729.444 181.074 729.898C183.03 730.388 185.022 730.842 186.873 731.646C189.074 732.59 190.332 734.512 189.878 736.924C188.935 741.886 187.817 746.815 186.629 751.708C185.406 756.845 183.939 761.948 182.681 767.051C181.912 770.197 184.044 771.769 186.314 773.167C187.118 773.657 188.061 773.971 188.9 774.426C192.708 776.453 194 776.208 196.551 771.664C199.276 766.841 201.197 761.599 203.678 756.636C205.669 752.721 207.905 748.877 210.246 745.137C212.272 741.921 213.879 741.607 217.513 743.04C218.421 743.389 219.399 743.599 220.203 744.088C222.334 745.382 224.29 747.618 223.312 751.009C221.286 758.139 216.639 763.801 213.6 770.336C211.573 774.67 209.897 779.179 208.534 783.757C208.185 784.946 209.303 787.078 210.386 788.091C212.552 790.118 215.032 791.831 217.617 793.264C218.456 793.718 220.412 793.229 221.216 792.495C228.203 786.204 234.981 779.668 242.003 773.412C243.855 771.734 246.23 770.546 248.501 769.428C249.375 769.008 250.807 769.148 251.715 769.567C255.244 771.14 257.235 775.789 256.117 779.424C255.978 779.878 255.768 780.332 255.419 780.647C250.772 785.086 246.021 789.454 241.409 793.928C237.776 797.458 234.072 800.918 230.753 804.763C228.692 807.139 230.684 809.726 231.836 811.893C233.234 814.549 234.387 814.829 237.147 813.326C245.427 808.817 253.707 804.273 261.847 799.485C266.948 796.479 271.315 796.759 274.529 800.883C276.555 803.47 276.66 806.72 274.214 808.957C271.384 811.508 268.31 813.92 265.061 815.877C259.611 819.197 253.881 822.098 248.292 825.209C247.209 825.803 246.125 826.537 245.182 827.376C241.095 830.906 241.898 832.409 244.239 836.778C244.903 838.071 246.999 839.224 248.501 839.294C252.589 839.504 256.676 839.154 260.764 838.875C265.166 838.56 269.568 838.106 273.97 837.547C276.485 837.232 278.931 836.114 281.411 836.148C286.687 836.218 290.355 841.601 288.643 846.564C288.364 847.403 287.176 848.416 286.337 848.521C281.726 849.08 277.114 849.325 272.503 849.849C266.668 850.513 260.869 851.247 255.104 852.156C251.121 852.785 249.514 855.092 249.794 859.076C249.969 861.313 250.318 863.55 250.493 865.787C250.947 871.449 254.37 872.707 258.807 872.672C264.712 872.602 270.616 872.392 276.485 872.218C277.918 872.183 279.35 872.043 280.747 871.728C284.625 870.924 288.014 872.497 291.333 874C293.29 874.874 293.15 877.216 292.766 879.138C292.486 880.536 291.962 881.934 291.543 883.297C290.844 885.499 289.062 886.932 286.687 886.792C281.9 886.512 277.079 886.023 272.293 885.813C266.983 885.604 261.672 885.429 256.362 885.639C252.973 885.778 250.562 887.701 249.724 891.231C249.619 891.72 249.165 892.105 248.92 892.559C248.466 893.503 247.488 894.796 247.767 895.32C249.375 898.081 250.667 901.192 253.812 902.695C261.183 906.225 268.625 909.685 275.961 913.285C279.455 914.997 282.879 916.92 286.163 918.982C287.106 919.576 287.84 920.939 288.119 922.092C288.783 925.063 287.7 927.999 285.639 929.781C283.892 931.319 281.167 930.62 279.001 929.467C274.11 926.811 269.323 923.91 264.257 921.533C258.807 918.982 253.183 916.78 247.558 914.648C245.566 913.879 243.68 914.368 242.178 916.221C239.627 919.401 237.531 922.756 238.754 926.95C239.278 928.733 240.501 930.655 241.933 931.774C248.676 937.016 255.663 941.944 262.511 947.082C264.886 948.864 267.157 950.787 269.463 952.639C271.629 954.387 271.909 957.882 270.197 961.342C268.904 963.963 267.192 964.732 264.013 963.998C260.03 963.089 256.676 961.167 253.602 958.371C250.038 955.191 246.056 952.499 242.248 949.564C239.732 947.606 237.182 945.684 234.841 943.552C231.837 940.826 229.251 940.721 226.561 943.727C224.814 945.684 223.242 947.816 221.845 950.053C220.377 952.429 221.181 954.771 222.893 956.693C225.827 960.014 228.797 963.264 231.871 966.445C235.924 970.639 240.082 974.693 244.204 978.817C245.147 979.761 246.195 980.705 246.929 981.823C247.768 983.081 248.571 984.444 247.313 986.017C246.37 987.205 245.706 988.603 244.693 989.722C241.374 993.322 238.23 991.854 235.54 988.848C228.692 981.089 221.95 973.26 214.997 965.641C211.399 961.691 206.368 962.286 202.909 966.619C200.359 969.835 200.569 971.687 202.56 975.322C205.844 981.369 208.744 987.59 211.748 993.776C212.587 995.489 213.32 997.271 213.739 999.124C214.054 1000.38 213.984 1001.85 213.739 1003.14C212.796 1008.14 209.477 1009.82 204.656 1008.11C201.267 1006.88 199.241 1004.37 197.739 1001.4C195.083 996.118 192.778 990.665 190.122 985.423C188.935 983.081 187.293 980.984 185.686 978.887C183.659 976.266 175.868 978.573 175.274 981.893C174.96 983.745 174.716 985.633 174.855 987.485C175.24 993.112 175.833 998.704 176.288 1004.33C176.567 1007.69 176.672 1011.04 176.847 1014.43C176.951 1016.63 175.554 1018.14 173.702 1018.45C171.257 1018.91 168.532 1019.05 166.156 1018.45C164.794 1018.1 163.221 1016.18 162.907 1014.71C161.824 1009.43 161.16 1004.09 160.531 998.774C160.112 995.139 160.112 991.434 159.693 987.765C159.309 984.479 156.968 982.347 153.649 982.103C151.972 981.963 150.26 981.858 148.618 982.103C146.138 982.487 143.867 983.466 143.238 986.227C142.364 989.862 141.666 993.531 140.897 997.166C141.107 997.201 141.316 997.271 141.526 997.306L141.701 997.271Z" fill="#A0D2B4"/>
</g>
<defs>
<clipPath id="clip0_1_646">
<rect width="393" height="852" fill="white"/>
</clipPath>
</defs>
</svg>
